<svg width="40" height="43" viewBox="0 0 40 43" fill="none" xmlns="http://www.w3.org/2000/svg">
<path d="M15.9932 23.3724V22.0867C15.9932 21.7251 16.2745 21.4439 16.6361 21.4439H30.7789C31.1405 21.4439 31.4218 21.7251 31.4218 22.0867V23.3724C31.4218 23.734 31.1405 24.0153 30.7789 24.0153H16.6361C16.2745 24.0153 15.9932 23.734 15.9932 23.3724Z" fill="white"/>
<path d="M16.6361 26.5867H30.7789C31.1405 26.5867 31.4218 26.868 31.4218 27.2296V28.5153C31.4218 28.8769 31.1405 29.1581 30.7789 29.1581H16.6361C16.2745 29.1581 15.9932 28.8769 15.9932 28.5153V27.2296C15.9932 26.868 16.2745 26.5867 16.6361 26.5867Z" fill="white"/>
<path d="M16.6361 31.7296H30.7789C31.1405 31.7296 31.4218 32.0108 31.4218 32.3724V33.6581C31.4218 34.0198 31.1405 34.301 30.7789 34.301H16.6361C16.2745 34.301 15.9932 34.0198 15.9932 33.6581V32.3724C15.9932 32.0108 16.2745 31.7296 16.6361 31.7296Z" fill="white"/>
<path fill-rule="evenodd" clip-rule="evenodd" d="M8.27892 15.3148C4.18373 15.3148 0.863922 11.995 0.863922 7.8998C0.863922 3.80461 4.18373 0.484802 8.27892 0.484802C11.7229 0.484802 14.6185 2.83277 15.4523 6.01529H28.2075C29.2722 6.01529 30.7588 6.63806 31.5021 7.38136L37.77 13.6492C38.5133 14.3925 39.1361 15.8791 39.1361 16.9439V40.0867C39.1361 41.1515 38.2722 42.0153 37.2075 42.0153H10.2075C9.14276 42.0153 8.27892 41.1515 8.27892 40.0867L8.27892 15.3148ZM10.8504 14.8568C13.4729 13.8871 15.397 11.477 15.6625 8.58672H26.2789V16.9439C26.2789 18.0086 27.1428 18.8724 28.2075 18.8724H36.5646V39.4439H10.8504V14.8568ZM29.674 9.1894C29.5334 9.04877 29.1919 8.86797 28.8504 8.74743V16.301H36.4039C36.2834 15.9595 36.1026 15.618 35.962 15.4773L29.674 9.1894ZM9.27892 8.89984H13.2789V6.89984H9.27892V2.89984H7.27892V6.89984H3.27892V8.89984H7.27892V12.8998H9.27892V8.89984Z" fill="white"/>
</svg>
